<svg width="800" height="800" viewBox="0 0 800 800" fill="none" xmlns="http://www.w3.org/2000/svg">
<path fill-rule="evenodd" clip-rule="evenodd" d="M399.975 249.677C483.014 249.677 550.302 316.968 550.302 400.001C550.302 482.99 483.014 550.282 399.975 550.282C316.986 550.282 249.697 482.991 249.697 400.001C249.697 316.968 316.987 249.677 399.975 249.677ZM187.211 400.001C187.211 390.862 194.603 383.473 203.739 383.473C212.881 383.473 220.267 390.862 220.267 400.001C220.267 409.14 212.881 416.529 203.739 416.529C194.603 416.529 187.211 409.14 187.211 400.001ZM215.722 506.382C211.177 498.47 213.884 488.37 221.759 483.776C229.672 479.23 239.773 481.941 244.362 489.855C248.908 497.766 246.2 507.868 238.286 512.416C230.369 516.962 220.267 514.298 215.722 506.382ZM293.594 584.257C285.681 579.666 282.972 569.565 287.562 561.696C292.108 553.78 302.209 551.069 310.122 555.616C318.041 560.207 320.748 570.307 316.159 578.179C311.612 586.093 301.512 588.804 293.594 584.257ZM399.975 612.763C390.839 612.763 383.447 605.374 383.447 596.237C383.447 587.099 390.837 579.71 399.975 579.71C409.116 579.71 416.502 587.099 416.502 596.237C416.502 605.374 409.116 612.763 399.975 612.763ZM506.356 584.257C498.444 588.804 488.344 586.093 483.797 578.179C479.206 570.307 481.916 560.205 489.827 555.616C497.745 551.069 507.847 553.779 512.392 561.696C516.984 569.565 514.277 579.665 506.356 584.257ZM584.234 506.382C579.684 514.298 569.583 516.962 561.67 512.416C553.758 507.868 551.048 497.766 555.594 489.855C560.184 481.943 570.284 479.23 578.198 483.776C586.116 488.37 588.825 498.47 584.234 506.382ZM612.744 400.001C612.744 409.14 605.353 416.529 596.211 416.529C587.075 416.529 579.684 409.14 579.684 400.001C579.684 390.862 587.075 383.473 596.211 383.473C605.353 383.473 612.744 390.862 612.744 400.001ZM584.234 293.62C588.825 301.532 586.116 311.632 578.198 316.18C570.286 320.771 560.184 318.06 555.594 310.146C551.048 302.235 553.756 292.134 561.67 287.54C569.583 282.995 579.684 285.704 584.234 293.62ZM506.356 215.745C514.275 220.291 516.984 230.393 512.394 238.305C507.848 246.221 497.747 248.932 489.828 244.338C481.917 239.795 479.206 229.693 483.798 221.777C488.344 213.865 498.444 211.155 506.356 215.745ZM399.975 187.238C409.116 187.238 416.502 194.627 416.502 203.765C416.502 212.902 409.114 220.291 399.975 220.291C390.839 220.291 383.447 212.902 383.447 203.765C383.447 194.627 390.839 187.238 399.975 187.238ZM293.594 215.745C301.512 211.154 311.612 213.865 316.158 221.777C320.748 229.693 318.039 239.795 310.12 244.338C302.208 248.93 292.106 246.221 287.561 238.305C282.972 230.393 285.681 220.291 293.594 215.745ZM215.722 293.62C220.267 285.704 230.369 282.995 238.286 287.54C246.198 292.132 248.908 302.234 244.362 310.146C239.772 318.06 229.672 320.771 221.759 316.18C213.884 311.632 211.175 301.532 215.722 293.62ZM362.067 307.962L418.645 277.135C421.228 275.734 424.508 276.698 425.905 279.276C426.602 280.63 426.733 282.12 426.3 283.474L420.131 305.905C447.506 314.735 469.325 333.409 482.617 356.799C496.694 381.548 501.328 411.718 493.195 441.363C492.413 444.205 489.483 445.868 486.592 445.124C483.753 444.337 482.091 441.405 482.881 438.521C490.223 411.76 486.028 384.477 473.3 362.09C461.323 341.059 441.819 324.268 417.291 316.224L412.962 331.963C433.159 338.83 449.253 352.734 459.134 370.135C469.8 388.893 473.298 411.762 467.136 434.191C466.352 437.032 463.417 438.738 460.578 437.951C457.737 437.163 456.031 434.237 456.816 431.393C462.195 411.762 459.134 391.824 449.819 375.427C441.253 360.387 427.434 348.362 410.117 342.326L402.555 369.83C401.766 372.671 398.837 374.377 395.997 373.59C394.598 373.196 393.458 372.32 392.761 371.143L359.75 315.524C358.258 312.946 359.092 309.665 361.625 308.177L362.067 307.962ZM437.931 492.04L381.309 522.866C378.727 524.266 375.491 523.304 374.048 520.726C373.347 519.371 373.216 517.882 373.655 516.526L379.823 494.096C352.448 485.221 330.673 466.593 317.337 443.202C303.261 418.454 298.622 388.284 306.755 358.638C307.544 355.751 310.517 354.091 313.358 354.877C316.203 355.665 317.866 358.596 317.075 361.437C309.733 388.24 313.927 415.523 326.648 437.91C338.63 458.941 358.134 475.688 382.664 483.776L386.991 467.99C366.789 461.127 350.7 447.223 340.819 429.818C330.148 411.062 326.65 388.238 332.819 365.807C333.603 362.921 336.536 361.26 339.377 362.048C342.217 362.79 343.923 365.762 343.139 368.605C337.759 388.191 340.819 408.174 350.131 424.529C358.702 439.568 372.52 451.638 389.837 457.673L397.4 430.126C398.183 427.282 401.117 425.621 404.002 426.409C405.402 426.76 406.492 427.679 407.194 428.812L440.205 484.474C441.734 487.01 440.863 490.332 438.325 491.821L437.931 492.04ZM347.245 744.638C340.731 743.326 338.367 753.821 345.672 755.263L356.475 756.749C362.77 757.974 365.347 747.61 357.742 746.08L347.245 744.638ZM305.927 735.762C298.014 734.188 297.048 744.945 303.042 746.126L313.577 748.882C321.1 750.412 322.542 739.743 316.159 738.474L305.927 735.762ZM265.961 721.902C259.184 719.191 255.466 729.291 261.848 731.829C265.17 733.271 268.583 734.584 271.948 735.894C274.75 736.988 277.855 735.371 278.814 732.966C280.037 729.904 278.462 726.932 275.798 725.837C272.477 724.57 269.197 723.299 265.961 721.902ZM228.009 703.274C227.131 702.793 225.691 702.443 224.467 702.662C219.439 703.669 218.303 710.007 222.675 712.632C225.822 714.424 229.058 716.174 232.248 717.879C238.067 721.377 243.528 712.151 237.277 708.39C234.173 706.729 231.07 705.066 228.009 703.274ZM192.547 680.187C186.948 675.988 180.477 684.604 186.12 688.802C188.917 690.987 192.064 693.132 195.042 695.185C201.338 698.991 206.717 690.552 201.119 686.354L192.547 680.187ZM160.15 652.991C155.38 648.226 147.511 655.571 152.759 660.816L160.803 668.209C165.261 672.668 173.486 665.716 167.931 660.162L160.15 652.991ZM131.247 622.077C125.955 616.785 118.87 623.477 123.027 628.988C125.341 631.785 127.661 634.54 130.111 637.251C135.661 642.848 142.57 634.584 138.155 630.123L131.247 622.077ZM106.323 587.927C104.881 585.568 101.778 584.87 99.2391 586.091C96.4859 587.752 95.5641 590.86 97.3141 593.787C99.2391 596.804 101.252 599.91 103.308 602.838C107.503 608.435 115.942 603.059 112.136 596.719L106.323 587.927ZM85.6828 551.024C83.3688 545.168 73.0922 548.359 76.0203 555.704C77.55 558.938 79.2109 562.22 80.8734 565.454C84.9422 572.232 93.6453 565.848 90.4047 560.47C88.8313 557.366 87.1688 554.176 85.6828 551.024ZM69.6828 511.849C66.8422 504.676 57.1313 509.357 59.5375 515.345L63.1672 525.577C65.9203 532.444 75.7578 528.113 73.2672 521.818L69.6828 511.849ZM58.6219 471.055C57.2625 464.277 46.6844 466.155 48.0828 473.284C48.8234 476.784 49.6125 480.41 50.4844 483.91C51.7563 490.38 62.3781 488.762 60.8922 481.374L58.6219 471.055ZM52.5844 429.165C52.5844 423.087 41.875 422.168 41.875 429.82C42.1328 433.538 42.5266 437.254 42.9219 440.927C44.5391 448.971 54.7719 445.56 53.5938 439.701L52.5844 429.165ZM399.975 759.374C402.03 759.374 404.131 758.02 404.827 756.313C406.575 752.727 403.867 748.618 399.975 748.618L389.397 748.441C381.961 748.441 382.356 759.199 389.091 759.199L399.975 759.374ZM452.711 55.318C459.269 56.632 461.627 46.1789 454.284 44.693L443.481 43.2508C443.088 43.1633 442.259 43.207 441.864 43.2945C436.183 44.4305 435.702 52.6086 442.216 53.918L452.711 55.318ZM494.073 64.1961C501.942 65.8148 502.908 55.057 496.914 53.8773L486.373 51.0773C478.9 49.593 477.458 60.2602 483.841 61.5289L494.073 64.1961ZM533.994 78.0555C540.772 80.768 544.491 70.7102 538.102 68.1305C534.778 66.732 531.367 65.418 528 64.1086C525.205 62.9695 522.102 64.5883 521.141 67.0367C519.913 70.0992 521.486 73.0711 524.158 74.1211C527.48 75.3883 530.759 76.7008 533.994 78.0555ZM571.947 96.6836C577.891 100.224 583.359 90.9977 577.456 87.4586C574.353 85.5773 570.942 83.8289 567.708 82.0789C561.889 78.582 556.467 87.8508 562.68 91.6133C565.827 93.2727 568.93 94.9352 571.947 96.6836ZM607.409 119.77C613.002 123.968 619.473 115.396 613.88 111.199C611.039 108.97 607.886 106.826 604.958 104.773C598.617 101.012 593.283 109.449 598.838 113.602L607.409 119.77ZM639.806 146.966C644.572 151.774 652.447 144.43 647.198 139.187L639.155 131.795C634.691 127.337 626.47 134.243 632.025 139.841L639.806 146.966ZM668.711 177.879C674.003 183.171 681.081 176.526 676.931 171.015C674.655 168.216 672.297 165.418 669.889 162.707C664.297 157.154 657.388 165.418 661.845 169.835L668.711 177.879ZM693.677 212.074C697.131 217.845 706.398 212.423 702.767 206.346C700.892 203.327 698.703 200.004 696.648 197.12C692.453 191.566 684.014 196.945 687.814 203.243L693.677 212.074ZM714.273 248.977C716.588 254.793 726.864 251.599 723.936 244.298C722.406 241.018 720.745 237.74 719.084 234.548C715.016 227.77 706.312 234.109 709.547 239.488C711.12 242.635 712.781 245.784 714.273 248.977ZM730.273 288.151C733.114 295.326 742.82 290.602 740.419 284.657L736.789 274.38C734.036 267.515 724.198 271.845 726.731 278.138L730.273 288.151ZM741.334 328.946C742.689 335.549 753.097 334.062 751.873 326.762C751.127 323.218 750.388 319.593 749.467 316.093C748.198 309.623 737.578 311.198 739.064 318.629L741.334 328.946ZM747.372 370.793C747.372 376.915 758.125 377.834 758.125 370.137C757.863 366.462 757.43 362.704 757.034 359.032C755.417 350.988 745.184 354.396 746.362 360.255L747.372 370.793ZM399.975 40.6289C397.967 40.6289 395.823 41.9383 395.166 43.6445C393.373 47.2305 396.087 51.3836 399.975 51.3836L410.602 51.5148C417.994 51.5148 417.6 40.8039 410.866 40.8039L399.975 40.6289ZM76.1969 400.001V423.262L165.7 436.687C168.327 453.566 172.741 469.873 178.728 485.396L107.984 541.759L131.202 581.982L215.456 548.884C226.039 561.955 238.02 573.937 251.094 584.52L217.995 668.777L258.223 692.038L314.584 621.248C330.103 627.238 346.417 631.655 363.289 634.277L376.756 723.784H423.234L436.659 634.277C453.538 631.655 469.845 627.238 485.37 621.248L541.775 692.038L582.003 668.777L548.859 584.52C561.978 573.938 573.914 561.957 584.498 548.884L668.753 581.982L692.016 541.759L621.222 485.396C627.216 469.873 631.63 453.566 634.256 436.687L723.759 423.22V400.001V376.74L634.256 363.315C631.63 346.435 627.216 330.127 621.222 314.605L692.016 258.199L668.753 217.974L584.498 251.116C573.916 237.999 561.978 226.062 548.859 215.48L582.003 131.223L541.775 107.96L485.37 178.752C469.845 172.762 453.538 168.345 436.659 165.723L423.234 76.2164H376.756L363.289 165.723C346.416 168.345 330.102 172.762 314.584 178.752L258.223 107.96L217.995 131.223L251.094 215.48C238.02 226.06 226.039 238.043 215.456 251.116L131.203 217.976L107.984 258.201L178.728 314.607C172.741 330.129 168.327 346.437 165.7 363.316L76.1969 376.741V400.001Z" fill="white"/>
</svg>
