<svg width="1024" height="1024" viewBox="0 0 1024 1024" fill="none" xmlns="http://www.w3.org/2000/svg">
<path d="M527.801 487.7L512.501 504.3C506.301 500.8 499.201 498.6 491.501 498.6C486.101 498.6 481.001 499.7 476.201 501.6L416.101 413C416.001 412.8 415.701 412.7 415.601 412.5C422.301 406 426.501 396.9 426.501 386.9C426.501 367.1 410.401 351.1 390.701 351.1C370.901 351.1 354.901 367.2 354.901 386.9C354.901 394 357.101 400.7 360.701 406.2L291.801 475C285.801 470.6 278.601 467.9 270.601 467.9C250.801 467.9 234.801 484 234.801 503.7C234.801 523.5 250.901 539.5 270.601 539.5C290.401 539.5 306.401 523.4 306.401 503.7C306.401 499 305.401 494.5 303.801 490.4L375.201 419C379.901 421.3 385.101 422.6 390.601 422.6C393.501 422.6 396.301 422.2 399.001 421.5C399.301 422.3 399.501 423.1 400.001 423.8L460.101 512.3C453.101 519.9 448.701 530 448.701 541.2C448.701 564.8 467.901 584 491.501 584C515.101 584 534.301 564.8 534.301 541.2C534.301 532.3 531.601 524.1 526.901 517.2L542.101 500.7L527.801 487.7ZM270.601 520.2C261.601 520.2 254.201 512.9 254.201 503.8C254.201 494.8 261.501 487.4 270.601 487.4C279.701 487.4 287.001 494.7 287.001 503.8C287.001 512.8 279.601 520.2 270.601 520.2ZM390.701 403.3C381.701 403.3 374.301 396 374.301 386.9C374.301 377.9 381.601 370.5 390.701 370.5C399.701 370.5 407.101 377.8 407.101 386.9C407.001 395.9 399.701 403.3 390.701 403.3ZM664.001 302.5C638.501 302.5 617.701 323.3 617.701 348.8C617.701 357.2 620.101 365 624.101 371.8L568.801 431.7L590.301 451.5L645.801 391.3C651.401 393.7 657.601 395.1 664.001 395.1C689.501 395.1 710.301 374.3 710.301 348.8C710.401 323.2 689.601 302.5 664.001 302.5ZM664.001 365.9C654.601 365.9 646.901 358.2 646.901 348.8C646.901 339.4 654.601 331.7 664.001 331.7C673.401 331.7 681.101 339.4 681.101 348.8C681.201 358.2 673.501 365.9 664.001 365.9Z" fill="white"/>
<path d="M854.801 578.498L787.501 480.898C822.801 447.898 845.101 400.998 845.101 348.798C845.101 248.898 764.101 167.898 664.201 167.898C564.301 167.898 483.301 248.898 483.301 348.798C483.301 448.698 564.301 529.698 664.201 529.698C691.001 529.698 716.401 523.698 739.201 513.298L807.001 611.498C815.801 624.198 833.401 627.398 846.101 618.698L847.701 617.598C860.301 608.798 863.501 591.198 854.801 578.498ZM664.001 494.298C583.601 494.298 518.501 429.098 518.501 348.798C518.501 268.498 583.701 203.198 664.001 203.198C744.301 203.198 809.501 268.398 809.501 348.698C809.501 428.998 744.401 494.298 664.001 494.298Z" fill="white"/>
<path d="M716.6 649.099C716.6 659.999 707.7 668.799 696.9 668.799H237.3C226.4 668.799 217.6 659.899 217.6 649.099V265.799C217.6 254.899 226.5 246.099 237.3 246.099H458.7C464.2 234.799 470.6 223.899 477.8 213.699H220.4C197.4 213.699 178.6 232.499 178.6 255.499V667.899C178.6 690.899 197.4 709.699 220.4 709.699H437.3V761.499H319.2C306.5 761.499 296.1 771.899 296.1 784.599V786.199C296.1 798.899 306.5 809.299 319.2 809.299H614.9C627.6 809.299 638 798.899 638 786.199V784.599C638 771.899 627.6 761.499 614.9 761.499H496.8V709.699H713.7C736.7 709.699 755.5 690.899 755.5 667.899V583.199C743 587.399 730 590.699 716.6 592.799V649.099Z" fill="white"/>
</svg>
