<svg width="123" height="92" viewBox="0 0 123 92" fill="none" xmlns="http://www.w3.org/2000/svg">
<g clip-path="url(#clip0_2266_130)">
<path fill-rule="evenodd" clip-rule="evenodd" d="M111.89 75.94L105.3 82.53C103.57 84.26 100.72 84.26 98.99 82.53L93.68 77.22C90.94 78.68 88 79.8 84.9 80.52V87.4C84.9 89.85 82.89 91.86 80.44 91.86H71.12C68.67 91.86 66.66 89.85 66.66 87.4V79.89C63.62 78.97 60.75 77.66 58.12 76L53.25 80.87C51.52 82.6 48.67 82.6 46.94 80.87L43.96 77.9L44.04 77.81L57.11 62.85C61.89 68.45 69.01 72.01 76.95 72.01C91.35 72.01 103.03 60.33 103.03 45.94C103.03 31.54 91.35 19.86 76.95 19.86C69.74 19.86 63.21 22.79 58.49 27.52L53.68 27.34L41.51 16.5C41.66 16.29 41.82 16.1 42 15.91L48.59 9.32C50.32 7.59 53.17 7.59 54.9 9.32L60.21 14.63C62.95 13.16 65.89 12.04 68.99 11.33V4.45C69.01 2.01 71.02 0 73.47 0H82.78C85.23 0 87.24 2.01 87.24 4.46V11.97C90.28 12.89 93.15 14.21 95.78 15.86L100.65 10.99C102.38 9.26 105.23 9.26 106.96 10.99L113.55 17.58C115.28 19.31 115.28 22.16 113.55 23.89L108.24 29.2C109.71 31.94 110.83 34.88 111.54 37.98H118.42C120.86 37.98 122.88 39.99 122.88 42.44V51.76C122.88 54.21 120.87 56.22 118.42 56.22H110.92C110 59.26 108.69 62.13 107.03 64.76L111.9 69.63C113.63 71.36 113.63 74.2 111.89 75.94ZM77.03 37.46C81.71 37.46 85.5 41.25 85.5 45.93C85.5 50.61 81.71 54.4 77.03 54.4C72.35 54.4 68.56 50.61 68.56 45.93C68.56 41.25 72.36 37.46 77.03 37.46ZM60.14 45.41L37.13 71.76L36.36 59.4C20.63 57.15 8.58 61.47 0 73.87C0.1 49.47 15.96 36.71 34.82 34.75L34.03 22.14L60.14 45.41Z" fill="white"/>
</g>
<defs>
<clipPath id="clip0_2266_130">
<rect width="122.88" height="91.86" fill="white"/>
</clipPath>
</defs>
</svg>
