<svg width="123" height="123" viewBox="0 0 123 123" fill="none" xmlns="http://www.w3.org/2000/svg">
<g clip-path="url(#clip0_2267_130)">
<path d="M101.64 14.7715C101.087 14.1993 100.426 13.7442 99.6937 13.4334C98.9618 13.1226 98.1748 12.9624 97.3796 12.9624C96.5844 12.9624 95.7974 13.1226 95.0655 13.4334C94.3335 13.7442 93.6718 14.1993 93.1196 14.7715L86.6296 21.2415C84.8698 20.1064 83.028 19.1037 81.1196 18.2415C79.2018 17.3885 77.2389 16.6407 75.2396 16.0015V6.00154C75.2573 5.21009 75.112 4.42345 74.8126 3.69058C74.5133 2.9577 74.0663 2.29427 73.4996 1.74154C72.9472 1.17431 72.2839 0.727033 71.5509 0.427654C70.8179 0.128275 70.0311 -0.0167808 69.2396 0.00154291H56.7496C55.9687 -0.00451386 55.1945 0.146387 54.473 0.445287C53.7515 0.744188 53.0974 1.185 52.5496 1.74154C51.9737 2.28933 51.518 2.95094 51.2115 3.68433C50.9051 4.41772 50.7546 5.20685 50.7696 6.00154V15.1115C48.7084 15.6008 46.6835 16.2323 44.7096 17.0015C42.7918 17.7382 40.9244 18.6001 39.1196 19.5815L31.9296 12.4915C31.4023 11.9152 30.7591 11.4568 30.0421 11.1466C29.3252 10.8364 28.5507 10.6813 27.7696 10.6915C26.9751 10.6904 26.1884 10.8491 25.4566 11.1584C24.7247 11.4676 24.0625 11.921 23.5096 12.4915L14.7696 21.2615C14.1974 21.8137 13.7423 22.4755 13.4314 23.2074C13.1206 23.9393 12.9604 24.7264 12.9604 25.5215C12.9604 26.3167 13.1206 27.1038 13.4314 27.8357C13.7423 28.5676 14.1974 29.2294 14.7696 29.7815L21.2396 36.2715C20.1045 38.0314 19.1017 39.8731 18.2396 41.7815C17.3872 43.6928 16.6395 45.649 15.9996 47.6415H5.99959C5.20814 47.6238 4.4215 47.7691 3.68863 48.0685C2.95575 48.3678 2.29231 48.8148 1.73959 49.3815C1.17235 49.9339 0.72508 50.5973 0.425701 51.3302C0.126322 52.0632 -0.0187339 52.85 -0.000410217 53.6415V66.1315C-0.00646699 66.9125 0.144434 67.6867 0.443334 68.4081C0.742235 69.1296 1.18304 69.7837 1.73959 70.3315C2.28737 70.9075 2.94899 71.3631 3.68238 71.6696C4.41577 71.976 5.20489 72.1265 5.99959 72.1115H15.1096C15.5989 74.1728 16.2304 76.1976 16.9996 78.1715C17.7533 80.1244 18.6147 82.034 19.5796 83.8915L12.4696 91.0015C11.8932 91.5288 11.4349 92.1721 11.1247 92.889C10.8145 93.606 10.6594 94.3804 10.6696 95.1615C10.6684 95.9561 10.8272 96.7427 11.1364 97.4746C11.4456 98.2065 11.899 98.8686 12.4696 99.4215L21.2396 108.292C22.3953 109.371 23.9179 109.972 25.4996 109.972C27.0812 109.972 28.6039 109.371 29.7596 108.292L36.2496 101.692C38.0094 102.827 39.8511 103.829 41.7596 104.692C43.6762 105.565 45.6391 106.333 47.6396 106.992V116.942C47.6316 117.732 47.7813 118.516 48.08 119.247C48.3787 119.979 48.8203 120.643 49.3791 121.202C49.9378 121.761 50.6025 122.202 51.334 122.501C52.0656 122.8 52.8494 122.95 53.6396 122.942H66.1296C66.9105 122.948 67.6847 122.797 68.4062 122.498C69.1277 122.199 69.7817 121.758 70.3296 121.202C70.9055 120.654 71.3612 119.992 71.6676 119.259C71.9741 118.525 72.1246 117.736 72.1096 116.942V107.832C74.1703 107.349 76.1952 106.724 78.1696 105.962C80.1224 105.208 82.032 104.346 83.8896 103.382L90.9996 110.412C91.543 110.981 92.1963 111.434 92.92 111.744C93.6436 112.053 94.4225 112.213 95.2096 112.213C95.9967 112.213 96.7756 112.053 97.4992 111.744C98.2228 111.434 98.8761 110.981 99.4196 110.412L108.29 101.642C109.369 100.486 109.97 98.9632 109.97 97.3815C109.97 95.7999 109.369 94.2773 108.29 93.1215L101.69 86.6315C102.825 84.8717 103.827 83.03 104.69 81.1215C105.563 79.205 106.331 77.242 106.99 75.2415H116.94C117.73 75.2496 118.514 75.0998 119.245 74.8012C119.977 74.5025 120.641 74.0608 121.2 73.5021C121.759 72.9433 122.201 72.2787 122.499 71.5471C122.798 70.8155 122.948 70.0317 122.94 69.2415V56.7515C122.946 55.9706 122.795 55.1964 122.496 54.4749C122.197 53.7535 121.756 53.0994 121.2 52.5515C120.652 51.9756 119.99 51.5199 119.257 51.2135C118.523 50.9071 117.734 50.7565 116.94 50.7715H107.83C107.328 48.7356 106.704 46.7319 105.96 44.7715C105.231 42.831 104.369 40.9432 103.38 39.1215L110.47 31.9315C111.046 31.4042 111.504 30.761 111.815 30.0441C112.125 29.3271 112.28 28.5527 112.27 27.7715C112.271 26.977 112.112 26.1904 111.803 25.4585C111.494 24.7266 111.04 24.0645 110.47 23.5115L101.7 14.7715H101.64ZM69.4396 43.4015L60.2596 48.6115L71.3796 50.0015L79.7496 44.7215L69.4396 43.4015ZM58.3596 51.4015L57.9196 64.3315L52.9996 61.0015L47.9996 63.8115L48.9996 50.2515L39.8896 49.0815V77.8415L70.1796 81.2115V52.9215L58.3996 51.4215L58.3596 51.4015ZM50.7196 47.4015L59.6196 42.1215L55.2196 41.5515L43.8696 46.5515L50.7196 47.4215V47.4015ZM73.1696 52.4815V80.2315L82.9996 74.3515L82.7996 46.3515L73.1396 52.4415L73.1696 52.4815ZM72.5496 84.1315C72.2877 84.3208 71.9727 84.4223 71.6496 84.4215H71.4196L38.2396 80.7115C37.854 80.6861 37.4926 80.5148 37.2289 80.2325C36.9651 79.9501 36.8188 79.5779 36.8196 79.1915V47.3415C36.8133 47.0426 36.8953 46.7484 37.0554 46.4958C37.2155 46.2432 37.4465 46.0435 37.7196 45.9215L54.3796 38.6015C54.6308 38.491 54.907 38.4495 55.1796 38.4815L83.9996 42.2615C84.2254 42.2382 84.4535 42.2602 84.6706 42.3265C84.8877 42.3927 85.0894 42.5017 85.2636 42.6471C85.4379 42.7925 85.5813 42.9713 85.6854 43.173C85.7895 43.3747 85.8521 43.5952 85.8696 43.8215L86.0996 75.1315C86.1123 75.4056 86.0502 75.6779 85.9198 75.9193C85.7894 76.1607 85.5957 76.3619 85.3596 76.5015L72.5496 84.1215V84.1315ZM61.4396 25.4015C68.5597 25.4015 75.5199 27.5129 81.4401 31.4686C87.3603 35.4244 91.9745 41.0468 94.6992 47.6249C97.424 54.2031 98.1369 61.4415 96.7479 68.4248C95.3588 75.4081 91.9301 81.8227 86.8954 86.8574C81.8607 91.8921 75.4462 95.3207 68.4628 96.7098C61.4795 98.0989 54.2411 97.386 47.663 94.6612C41.0848 91.9364 35.4624 87.3222 31.5067 81.4021C27.551 75.4819 25.4396 68.5217 25.4396 61.4015C25.4396 51.8537 29.2324 42.697 35.9837 35.9457C42.7351 29.1944 51.8918 25.4015 61.4396 25.4015Z" fill="white"/>
</g>
<defs>
<clipPath id="clip0_2267_130">
<rect width="122.88" height="122.88" fill="white"/>
</clipPath>
</defs>
</svg>
